<mxfile host="app.diagrams.net" agent="Mozilla/5.0 (Windows NT 10.0; Win64; x64) AppleWebKit/537.36 (KHTML, like Gecko) Chrome/135.0.0.0 Safari/537.36" version="26.2.14">
  <diagram name="Page-1" id="xAENTH8A6okPBp-v7q09">
    <mxGraphModel dx="2605" dy="2340" grid="1" gridSize="10" guides="1" tooltips="1" connect="1" arrows="1" fold="1" page="1" pageScale="1" pageWidth="1100" pageHeight="850" math="0" shadow="0">
      <root>
        <mxCell id="0" />
        <mxCell id="1" parent="0" />
        <mxCell id="7eOY9bGZzEwkIKMD3TOp-1" value="" style="rounded=0;whiteSpace=wrap;html=1;strokeColor=light-dark(#FFFFFF,#FFFFFF);labelBackgroundColor=light-dark(default, #1b1d1e);fillColor=light-dark(#FFFFFF,#FFFFFF);" parent="1" vertex="1">
          <mxGeometry x="120" y="-410" width="760" height="510" as="geometry" />
        </mxCell>
        <mxCell id="7eOY9bGZzEwkIKMD3TOp-2" value="" style="rounded=0;whiteSpace=wrap;html=1;strokeColor=light-dark(#000000,#000000);fillColor=light-dark(#FFFFFF,#FFFFFF);fontColor=light-dark(#000000,#000000);" parent="1" vertex="1">
          <mxGeometry x="160" y="-355" width="330" height="400" as="geometry" />
        </mxCell>
        <mxCell id="7eOY9bGZzEwkIKMD3TOp-6" value="&lt;b&gt;&lt;font style=&quot;font-size: 22px;&quot;&gt;SignIn&lt;/font&gt;&lt;/b&gt;" style="rounded=0;whiteSpace=wrap;html=1;fillColor=light-dark(#FFFFFF,#FFFFFF);fontColor=light-dark(#000000,#000000);strokeColor=none;align=left;" parent="1" vertex="1">
          <mxGeometry x="170" y="-335" width="80" height="30" as="geometry" />
        </mxCell>
        <mxCell id="7eOY9bGZzEwkIKMD3TOp-7" style="edgeStyle=orthogonalEdgeStyle;rounded=0;orthogonalLoop=1;jettySize=auto;html=1;exitX=0.5;exitY=1;exitDx=0;exitDy=0;" parent="1" source="7eOY9bGZzEwkIKMD3TOp-6" target="7eOY9bGZzEwkIKMD3TOp-6" edge="1">
          <mxGeometry relative="1" as="geometry" />
        </mxCell>
        <mxCell id="7eOY9bGZzEwkIKMD3TOp-8" value="&lt;font style=&quot;color: light-dark(rgb(0, 0, 0), rgb(0, 0, 0));&quot;&gt;Don&#39;t have an account?&lt;/font&gt; &lt;font style=&quot;color: light-dark(rgb(0, 0, 0), rgb(0, 102, 0));&quot;&gt;Create Now&lt;/font&gt;" style="rounded=1;whiteSpace=wrap;html=1;strokeColor=light-dark(#000000,#FFFFFF);fillColor=light-dark(#FFFFFF,#FFFFFF);" parent="1" vertex="1">
          <mxGeometry x="170" y="-295" width="200" height="30" as="geometry" />
        </mxCell>
        <mxCell id="7eOY9bGZzEwkIKMD3TOp-10" value="&lt;font style=&quot;font-size: 14px; color: light-dark(rgb(0, 0, 0), rgb(0, 0, 0));&quot;&gt;E-mail&lt;/font&gt;" style="rounded=0;whiteSpace=wrap;html=1;align=left;fillColor=light-dark(#FFFFFF,#FFFFFF);" parent="1" vertex="1">
          <mxGeometry x="170" y="-255" width="90" height="20" as="geometry" />
        </mxCell>
        <mxCell id="7eOY9bGZzEwkIKMD3TOp-11" value="" style="rounded=1;whiteSpace=wrap;html=1;fillColor=light-dark(#FFFFFF,#FFFFFF);strokeColor=light-dark(#000000,#000000);" parent="1" vertex="1">
          <mxGeometry x="170" y="-225" width="310" height="40" as="geometry" />
        </mxCell>
        <mxCell id="7eOY9bGZzEwkIKMD3TOp-12" value="&lt;font style=&quot;font-size: 14px; color: light-dark(rgb(0, 0, 0), rgb(0, 0, 0));&quot;&gt;Password&lt;/font&gt;" style="rounded=0;whiteSpace=wrap;html=1;align=left;fillColor=light-dark(#FFFFFF,#FFFFFF);" parent="1" vertex="1">
          <mxGeometry x="170" y="-175" width="90" height="20" as="geometry" />
        </mxCell>
        <mxCell id="7eOY9bGZzEwkIKMD3TOp-13" value="" style="rounded=1;whiteSpace=wrap;html=1;fillColor=light-dark(#FFFFFF,#FFFFFF);strokeColor=light-dark(#000000,#000000);" parent="1" vertex="1">
          <mxGeometry x="170" y="-145" width="310" height="40" as="geometry" />
        </mxCell>
        <mxCell id="7eOY9bGZzEwkIKMD3TOp-14" value="&lt;font style=&quot;color: light-dark(rgb(0, 0, 0), rgb(0, 0, 0));&quot;&gt;Forgot Password?&lt;/font&gt;" style="rounded=1;whiteSpace=wrap;html=1;strokeColor=light-dark(#000000,#FFFFFF);fillColor=light-dark(#FFFFFF,#FFFFFF);align=right;gradientColor=none;" parent="1" vertex="1">
          <mxGeometry x="370" y="-95" width="110" height="20" as="geometry" />
        </mxCell>
        <mxCell id="7eOY9bGZzEwkIKMD3TOp-16" value="&lt;b&gt;&lt;font style=&quot;font-size: 16px;&quot;&gt;Sign In&lt;/font&gt;&lt;/b&gt;" style="rounded=1;whiteSpace=wrap;html=1;fillColor=light-dark(#FFFFFF,#006600);" parent="1" vertex="1">
          <mxGeometry x="170" y="-65" width="310" height="50" as="geometry" />
        </mxCell>
        <mxCell id="7eOY9bGZzEwkIKMD3TOp-18" value="" style="line;strokeWidth=1;rotatable=0;dashed=0;labelPosition=right;align=left;verticalAlign=middle;spacingTop=0;spacingLeft=6;points=[];portConstraint=eastwest;fillColor=light-dark(#000000,#000000);strokeColor=light-dark(#000000,#000000);" parent="1" vertex="1">
          <mxGeometry x="170" y="15" width="140" height="10" as="geometry" />
        </mxCell>
        <mxCell id="7eOY9bGZzEwkIKMD3TOp-19" value="" style="line;strokeWidth=1;rotatable=0;dashed=0;labelPosition=right;align=left;verticalAlign=middle;spacingTop=0;spacingLeft=6;points=[];portConstraint=eastwest;fillColor=light-dark(#000000,#000000);strokeColor=light-dark(#000000,#000000);" parent="1" vertex="1">
          <mxGeometry x="340" y="15" width="140" height="10" as="geometry" />
        </mxCell>
        <mxCell id="7eOY9bGZzEwkIKMD3TOp-20" value="OR" style="rounded=1;whiteSpace=wrap;html=1;fillColor=light-dark(#FFFFFF,#FFFFFF);fontColor=light-dark(#000000,#000000);arcSize=50;" parent="1" vertex="1">
          <mxGeometry x="315" y="2.5" width="20" height="35" as="geometry" />
        </mxCell>
        <mxCell id="7eOY9bGZzEwkIKMD3TOp-21" value="" style="rounded=0;whiteSpace=wrap;html=1;strokeColor=light-dark(#FFFFFF,#FFFFFF);labelBackgroundColor=light-dark(default, #1b1d1e);fillColor=light-dark(#FFFFFF,#FFFFFF);" parent="1" vertex="1">
          <mxGeometry x="1300" y="-480" width="760" height="680" as="geometry" />
        </mxCell>
        <mxCell id="7eOY9bGZzEwkIKMD3TOp-22" value="" style="rounded=0;whiteSpace=wrap;html=1;strokeColor=light-dark(#000000,#000000);fillColor=light-dark(#FFFFFF,#FFFFFF);fontColor=light-dark(#000000,#000000);" parent="1" vertex="1">
          <mxGeometry x="1330" y="-420" width="330" height="600" as="geometry" />
        </mxCell>
        <mxCell id="7eOY9bGZzEwkIKMD3TOp-23" value="&lt;b&gt;&lt;font style=&quot;font-size: 22px;&quot;&gt;SignUp&lt;/font&gt;&lt;/b&gt;" style="rounded=0;whiteSpace=wrap;html=1;fillColor=light-dark(#FFFFFF,#FFFFFF);fontColor=light-dark(#000000,#000000);strokeColor=none;align=left;" parent="1" vertex="1">
          <mxGeometry x="1340" y="-390" width="80" height="30" as="geometry" />
        </mxCell>
        <mxCell id="7eOY9bGZzEwkIKMD3TOp-24" value="&lt;font style=&quot;font-size: 14px; color: light-dark(rgb(0, 0, 0), rgb(0, 0, 0));&quot;&gt;First Name&lt;/font&gt;" style="rounded=0;whiteSpace=wrap;html=1;align=left;fillColor=light-dark(#FFFFFF,#FFFFFF);" parent="1" vertex="1">
          <mxGeometry x="1340" y="-310" width="90" height="20" as="geometry" />
        </mxCell>
        <mxCell id="7eOY9bGZzEwkIKMD3TOp-25" value="" style="rounded=1;whiteSpace=wrap;html=1;fillColor=light-dark(#FFFFFF,#FFFFFF);strokeColor=light-dark(#000000,#000000);" parent="1" vertex="1">
          <mxGeometry x="1340" y="-280" width="310" height="40" as="geometry" />
        </mxCell>
        <mxCell id="7eOY9bGZzEwkIKMD3TOp-26" style="edgeStyle=orthogonalEdgeStyle;rounded=0;orthogonalLoop=1;jettySize=auto;html=1;exitX=0.5;exitY=0;exitDx=0;exitDy=0;entryX=0.25;entryY=0;entryDx=0;entryDy=0;" parent="1" source="7eOY9bGZzEwkIKMD3TOp-24" target="7eOY9bGZzEwkIKMD3TOp-24" edge="1">
          <mxGeometry relative="1" as="geometry" />
        </mxCell>
        <mxCell id="7eOY9bGZzEwkIKMD3TOp-27" value="&lt;font style=&quot;font-size: 14px; color: light-dark(rgb(0, 0, 0), rgb(0, 0, 0));&quot;&gt;Last Name&lt;/font&gt;" style="rounded=0;whiteSpace=wrap;html=1;align=left;fillColor=light-dark(#FFFFFF,#FFFFFF);" parent="1" vertex="1">
          <mxGeometry x="1340" y="-230" width="90" height="20" as="geometry" />
        </mxCell>
        <mxCell id="7eOY9bGZzEwkIKMD3TOp-28" value="" style="rounded=1;whiteSpace=wrap;html=1;fillColor=light-dark(#FFFFFF,#FFFFFF);strokeColor=light-dark(#000000,#000000);" parent="1" vertex="1">
          <mxGeometry x="1340" y="-200" width="310" height="40" as="geometry" />
        </mxCell>
        <mxCell id="7eOY9bGZzEwkIKMD3TOp-29" value="&lt;font style=&quot;font-size: 14px; color: light-dark(rgb(0, 0, 0), rgb(0, 0, 0));&quot;&gt;E-mail&lt;/font&gt;" style="rounded=0;whiteSpace=wrap;html=1;align=left;fillColor=light-dark(#FFFFFF,#FFFFFF);" parent="1" vertex="1">
          <mxGeometry x="1340" y="-150" width="90" height="20" as="geometry" />
        </mxCell>
        <mxCell id="7eOY9bGZzEwkIKMD3TOp-30" value="" style="rounded=1;whiteSpace=wrap;html=1;fillColor=light-dark(#FFFFFF,#FFFFFF);strokeColor=light-dark(#000000,#000000);" parent="1" vertex="1">
          <mxGeometry x="1340" y="-120" width="310" height="40" as="geometry" />
        </mxCell>
        <mxCell id="7eOY9bGZzEwkIKMD3TOp-31" value="&lt;font style=&quot;font-size: 14px; color: light-dark(rgb(0, 0, 0), rgb(0, 0, 0));&quot;&gt;Password&lt;/font&gt;" style="rounded=0;whiteSpace=wrap;html=1;align=left;fillColor=light-dark(#FFFFFF,#FFFFFF);" parent="1" vertex="1">
          <mxGeometry x="1340" y="-70" width="90" height="20" as="geometry" />
        </mxCell>
        <mxCell id="7eOY9bGZzEwkIKMD3TOp-32" value="" style="rounded=1;whiteSpace=wrap;html=1;fillColor=light-dark(#FFFFFF,#FFFFFF);strokeColor=light-dark(#000000,#000000);" parent="1" vertex="1">
          <mxGeometry x="1340" y="-40" width="310" height="40" as="geometry" />
        </mxCell>
        <mxCell id="7eOY9bGZzEwkIKMD3TOp-33" value="&lt;font style=&quot;font-size: 14px; color: light-dark(rgb(0, 0, 0), rgb(0, 0, 0));&quot;&gt;Confirm Password&lt;/font&gt;" style="rounded=0;whiteSpace=wrap;html=1;align=left;fillColor=light-dark(#FFFFFF,#FFFFFF);" parent="1" vertex="1">
          <mxGeometry x="1340" y="10" width="130" height="20" as="geometry" />
        </mxCell>
        <mxCell id="7eOY9bGZzEwkIKMD3TOp-34" style="edgeStyle=orthogonalEdgeStyle;rounded=0;orthogonalLoop=1;jettySize=auto;html=1;exitX=0.5;exitY=1;exitDx=0;exitDy=0;" parent="1" source="7eOY9bGZzEwkIKMD3TOp-22" target="7eOY9bGZzEwkIKMD3TOp-22" edge="1">
          <mxGeometry relative="1" as="geometry" />
        </mxCell>
        <mxCell id="7eOY9bGZzEwkIKMD3TOp-35" value="" style="rounded=1;whiteSpace=wrap;html=1;fillColor=light-dark(#FFFFFF,#FFFFFF);strokeColor=light-dark(#000000,#000000);" parent="1" vertex="1">
          <mxGeometry x="1340" y="40" width="310" height="40" as="geometry" />
        </mxCell>
        <mxCell id="7eOY9bGZzEwkIKMD3TOp-36" value="&lt;b&gt;&lt;font style=&quot;font-size: 16px;&quot;&gt;Sign Up&lt;/font&gt;&lt;/b&gt;" style="rounded=1;whiteSpace=wrap;html=1;fillColor=light-dark(#FFFFFF,#006600);" parent="1" vertex="1">
          <mxGeometry x="1340" y="110" width="310" height="50" as="geometry" />
        </mxCell>
        <mxCell id="7eOY9bGZzEwkIKMD3TOp-38" value="&lt;font style=&quot;color: light-dark(rgb(0, 0, 0), rgb(0, 0, 0));&quot;&gt;Already have an account?&lt;/font&gt;&amp;nbsp;&lt;font color=&quot;#006600&quot;&gt;Sign In&lt;/font&gt;" style="rounded=1;whiteSpace=wrap;html=1;strokeColor=light-dark(#000000,#FFFFFF);fillColor=light-dark(#FFFFFF,#FFFFFF);" parent="1" vertex="1">
          <mxGeometry x="1340" y="-350" width="190" height="30" as="geometry" />
        </mxCell>
        <mxCell id="o7_HjGY78r_KiXa49CAX-5" value="" style="rounded=0;whiteSpace=wrap;html=1;fillColor=light-dark(#FFFFFF,#FFFFFF);fontColor=#ffffff;strokeColor=#005700;" parent="1" vertex="1">
          <mxGeometry x="10" y="1620" width="2120" height="1270" as="geometry" />
        </mxCell>
        <mxCell id="o7_HjGY78r_KiXa49CAX-6" value="&lt;h2&gt;&lt;font style=&quot;color: light-dark(rgb(0, 0, 0), rgb(0, 0, 0)); font-size: 42px;&quot;&gt;&lt;b style=&quot;&quot;&gt;ZoomCar&lt;/b&gt;&lt;/font&gt;&lt;/h2&gt;" style="rounded=1;whiteSpace=wrap;html=1;fillColor=light-dark(#FFFFFF,#FFFFFF);" parent="1" vertex="1">
          <mxGeometry x="80" y="1690" width="320" height="80" as="geometry" />
        </mxCell>
        <mxCell id="o7_HjGY78r_KiXa49CAX-7" style="edgeStyle=orthogonalEdgeStyle;rounded=0;orthogonalLoop=1;jettySize=auto;html=1;exitX=0.5;exitY=0;exitDx=0;exitDy=0;" parent="1" source="o7_HjGY78r_KiXa49CAX-6" target="o7_HjGY78r_KiXa49CAX-6" edge="1">
          <mxGeometry relative="1" as="geometry" />
        </mxCell>
        <mxCell id="o7_HjGY78r_KiXa49CAX-10" value="&lt;font style=&quot;font-size: 23px; color: light-dark(rgb(0, 0, 0), rgb(0, 0, 0));&quot;&gt;Host Car&lt;/font&gt;" style="rounded=1;whiteSpace=wrap;html=1;fillColor=light-dark(#FFFFFF,#FFFFFF);strokeColor=light-dark(#000000,#000000);" parent="1" vertex="1">
          <mxGeometry x="1090" y="1700" width="230" height="60" as="geometry" />
        </mxCell>
        <mxCell id="o7_HjGY78r_KiXa49CAX-11" value="&lt;font style=&quot;font-size: 23px; color: light-dark(rgb(0, 0, 0), rgb(0, 0, 0));&quot;&gt;My Booking&lt;/font&gt;" style="rounded=1;whiteSpace=wrap;html=1;fillColor=light-dark(#FFFFFF,#FFFFFF);strokeColor=light-dark(#000000,#000000);" parent="1" vertex="1">
          <mxGeometry x="1370" y="1700" width="230" height="60" as="geometry" />
        </mxCell>
        <mxCell id="o7_HjGY78r_KiXa49CAX-12" value="&lt;font style=&quot;font-size: 25px; color: light-dark(rgb(0, 0, 0), rgb(0, 0, 0));&quot;&gt;Login/SignUp&lt;/font&gt;" style="rounded=1;whiteSpace=wrap;html=1;fillColor=light-dark(#FFFFFF,#FFFFFF);strokeColor=light-dark(#000000,#000000);" parent="1" vertex="1">
          <mxGeometry x="1800" y="1700" width="270" height="60" as="geometry" />
        </mxCell>
        <mxCell id="o7_HjGY78r_KiXa49CAX-13" value="" style="verticalLabelPosition=bottom;verticalAlign=top;html=1;shape=mxgraph.basic.heart;fillColor=light-dark(#FFFFFF,#FFFFFF);strokeColor=light-dark(#000000,#000000);" parent="1" vertex="1">
          <mxGeometry x="1660" y="1700" width="70" height="50" as="geometry" />
        </mxCell>
        <mxCell id="o7_HjGY78r_KiXa49CAX-14" value="" style="rounded=1;whiteSpace=wrap;html=1;fillColor=light-dark(#FFFFFF,#FFFFFF);strokeColor=light-dark(#000000,#000000);" parent="1" vertex="1">
          <mxGeometry x="80" y="1910" width="850" height="720" as="geometry" />
        </mxCell>
        <mxCell id="o7_HjGY78r_KiXa49CAX-15" value="&lt;font style=&quot;font-size: 25px;&quot;&gt;Locking for ca rentals?&amp;nbsp;&lt;/font&gt;" style="rounded=1;whiteSpace=wrap;html=1;fontSize=18;direction=west;fillColor=light-dark(#FFFFFF,#FFFFFF);fontColor=light-dark(#000000,#000000);" parent="1" vertex="1">
          <mxGeometry x="140" y="1940" width="290" height="60" as="geometry" />
        </mxCell>
        <mxCell id="o7_HjGY78r_KiXa49CAX-16" value="&lt;font style=&quot;font-size: 53px; color: light-dark(rgb(0, 0, 0), rgb(0, 0, 0));&quot;&gt;Explore self-drive cars in Pune&amp;nbsp;&lt;/font&gt;" style="rounded=1;whiteSpace=wrap;html=1;fillColor=light-dark(#FFFFFF,#FFFFFF);strokeColor=light-dark(#FFFFFF,#FFFFFF);" parent="1" vertex="1">
          <mxGeometry x="115" y="2000" width="780" height="100" as="geometry" />
        </mxCell>
        <mxCell id="o7_HjGY78r_KiXa49CAX-18" value="" style="rounded=1;whiteSpace=wrap;html=1;fillColor=light-dark(#FFFFFF,#FFFFFF);strokeColor=light-dark(#000000,#000000);" parent="1" vertex="1">
          <mxGeometry x="115" y="2120" width="780" height="100" as="geometry" />
        </mxCell>
        <mxCell id="o7_HjGY78r_KiXa49CAX-19" value="&lt;font style=&quot;color: light-dark(rgb(0, 0, 0), rgb(0, 0, 0)); font-size: 21px;&quot;&gt;Location&lt;/font&gt;" style="rounded=1;whiteSpace=wrap;html=1;fillColor=light-dark(#FFFFFF,#FFFFFF);" parent="1" vertex="1">
          <mxGeometry x="130" y="2130" width="120" height="40" as="geometry" />
        </mxCell>
        <mxCell id="o7_HjGY78r_KiXa49CAX-23" style="edgeStyle=orthogonalEdgeStyle;rounded=0;orthogonalLoop=1;jettySize=auto;html=1;exitX=0.75;exitY=1;exitDx=0;exitDy=0;entryX=0.75;entryY=0;entryDx=0;entryDy=0;" parent="1" edge="1">
          <mxGeometry relative="1" as="geometry">
            <mxPoint x="220" y="2280" as="sourcePoint" />
            <mxPoint x="220" y="2250" as="targetPoint" />
          </mxGeometry>
        </mxCell>
        <mxCell id="o7_HjGY78r_KiXa49CAX-25" value="" style="rounded=1;whiteSpace=wrap;html=1;fillColor=light-dark(#FFFFFF,#FFFFFF);strokeColor=light-dark(#000000,#000000);" parent="1" vertex="1">
          <mxGeometry x="520" y="2250" width="375" height="120" as="geometry" />
        </mxCell>
        <mxCell id="o7_HjGY78r_KiXa49CAX-26" value="&lt;font style=&quot;font-size: 21px; color: light-dark(rgb(0, 0, 0), rgb(0, 0, 0));&quot;&gt;Trip Ends&lt;/font&gt;" style="rounded=1;whiteSpace=wrap;html=1;fillColor=light-dark(#FFFFFF,#FFFFFF);" parent="1" vertex="1">
          <mxGeometry x="530" y="2260" width="120" height="30" as="geometry" />
        </mxCell>
        <mxCell id="o7_HjGY78r_KiXa49CAX-27" value="" style="rounded=1;whiteSpace=wrap;html=1;fillColor=light-dark(#FFFFFF,#FFFFFF);strokeColor=light-dark(#000000,#000000);" parent="1" vertex="1">
          <mxGeometry x="115" y="2250" width="375" height="120" as="geometry" />
        </mxCell>
        <mxCell id="o7_HjGY78r_KiXa49CAX-28" value="&lt;font style=&quot;font-size: 21px; color: light-dark(rgb(0, 0, 0), rgb(0, 0, 0));&quot;&gt;Trip Starts&lt;/font&gt;" style="rounded=1;whiteSpace=wrap;html=1;fillColor=light-dark(#FFFFFF,#FFFFFF);arcSize=50;" parent="1" vertex="1">
          <mxGeometry x="125" y="2260" width="120" height="30" as="geometry" />
        </mxCell>
        <mxCell id="o7_HjGY78r_KiXa49CAX-29" value="&lt;font style=&quot;font-size: 50px; color: light-dark(rgb(255, 255, 255), rgb(255, 255, 255));&quot;&gt;Search Cars&lt;/font&gt;" style="rounded=1;whiteSpace=wrap;html=1;fillColor=light-dark(#008A00,#006600);fontColor=#ffffff;strokeColor=light-dark(#005700,#006600);" parent="1" vertex="1">
          <mxGeometry x="165" y="2490" width="680" height="100" as="geometry" />
        </mxCell>
        <mxCell id="o7_HjGY78r_KiXa49CAX-30" value="" style="whiteSpace=wrap;html=1;aspect=fixed;fillColor=light-dark(#FFFFFF,#FFFFFF);strokeColor=light-dark(#000000,#000000);" parent="1" vertex="1">
          <mxGeometry x="125" y="2410" width="40" height="40" as="geometry" />
        </mxCell>
        <mxCell id="o7_HjGY78r_KiXa49CAX-31" value="&lt;font style=&quot;font-size: 40px;&quot;&gt;Delivery &amp;amp; Pick-up, from anywhere&lt;/font&gt;" style="rounded=1;whiteSpace=wrap;html=1;fillColor=light-dark(#FFFFFF,#FFFFFF);strokeColor=default;fontColor=light-dark(#000000,#0E0E0E);" parent="1" vertex="1">
          <mxGeometry x="180" y="2400" width="640" height="60" as="geometry" />
        </mxCell>
        <mxCell id="o7_HjGY78r_KiXa49CAX-36" value="" style="rounded=0;whiteSpace=wrap;html=1;fillColor=light-dark(#FFFFFF,#FFFFFF);" parent="1" vertex="1">
          <mxGeometry x="2200" y="410" width="2470" height="2950" as="geometry" />
        </mxCell>
        <mxCell id="o7_HjGY78r_KiXa49CAX-37" value="&lt;h2&gt;&lt;font style=&quot;color: light-dark(rgb(0, 0, 0), rgb(0, 0, 0)); font-size: 42px;&quot;&gt;&lt;b style=&quot;&quot;&gt;ZoomCar&lt;/b&gt;&lt;/font&gt;&lt;/h2&gt;" style="rounded=1;whiteSpace=wrap;html=1;fillColor=light-dark(#FFFFFF,#FFFFFF);" parent="1" vertex="1">
          <mxGeometry x="2330" y="450" width="320" height="80" as="geometry" />
        </mxCell>
        <mxCell id="o7_HjGY78r_KiXa49CAX-38" value="&lt;font style=&quot;font-size: 30px; color: light-dark(rgb(0, 0, 0), rgb(0, 0, 0));&quot;&gt;Searching For Model&lt;/font&gt;" style="rounded=1;whiteSpace=wrap;html=1;fillColor=light-dark(#FFFFFF,#FFFFFF);strokeColor=light-dark(#000000,#000000);" parent="1" vertex="1">
          <mxGeometry x="2740" y="450" width="1240" height="80" as="geometry" />
        </mxCell>
        <mxCell id="o7_HjGY78r_KiXa49CAX-39" value="&lt;font style=&quot;font-size: 23px; color: light-dark(rgb(0, 0, 0), rgb(0, 0, 0));&quot;&gt;Host Car&lt;/font&gt;" style="rounded=1;whiteSpace=wrap;html=1;fillColor=light-dark(#FFFFFF,#FFFFFF);strokeColor=light-dark(#000000,#000000);" parent="1" vertex="1">
          <mxGeometry x="4040" y="450" width="230" height="80" as="geometry" />
        </mxCell>
        <mxCell id="o7_HjGY78r_KiXa49CAX-40" value="&lt;font style=&quot;font-size: 23px; color: light-dark(rgb(0, 0, 0), rgb(0, 0, 0));&quot;&gt;Guest&lt;/font&gt;" style="rounded=1;whiteSpace=wrap;html=1;fillColor=light-dark(#FFFFFF,#FFFFFF);strokeColor=light-dark(#000000,#000000);" parent="1" vertex="1">
          <mxGeometry x="4360" y="450" width="230" height="80" as="geometry" />
        </mxCell>
        <mxCell id="o7_HjGY78r_KiXa49CAX-50" style="edgeStyle=orthogonalEdgeStyle;rounded=0;orthogonalLoop=1;jettySize=auto;html=1;exitX=0.75;exitY=1;exitDx=0;exitDy=0;" parent="1" source="o7_HjGY78r_KiXa49CAX-41" target="o7_HjGY78r_KiXa49CAX-40" edge="1">
          <mxGeometry relative="1" as="geometry" />
        </mxCell>
        <mxCell id="o7_HjGY78r_KiXa49CAX-41" value="" style="shape=actor;whiteSpace=wrap;html=1;" parent="1" vertex="1">
          <mxGeometry x="4520" y="470" width="30" height="40" as="geometry" />
        </mxCell>
        <mxCell id="o7_HjGY78r_KiXa49CAX-46" style="edgeStyle=orthogonalEdgeStyle;rounded=0;orthogonalLoop=1;jettySize=auto;html=1;exitX=0.25;exitY=1;exitDx=0;exitDy=0;" parent="1" edge="1">
          <mxGeometry relative="1" as="geometry">
            <mxPoint x="2940" y="690" as="sourcePoint" />
            <mxPoint x="3130" y="690" as="targetPoint" />
          </mxGeometry>
        </mxCell>
        <mxCell id="o7_HjGY78r_KiXa49CAX-47" value="" style="rounded=1;whiteSpace=wrap;html=1;fillColor=light-dark(#FFFFFF,#FFFFFF);strokeColor=light-dark(#000000,#000000);" parent="1" vertex="1">
          <mxGeometry x="2740" y="600" width="780" height="80" as="geometry" />
        </mxCell>
        <mxCell id="o7_HjGY78r_KiXa49CAX-48" value="&lt;font style=&quot;color: light-dark(rgb(0, 0, 0), rgb(0, 0, 0)); font-size: 30px;&quot;&gt;Location&lt;/font&gt;" style="rounded=1;whiteSpace=wrap;html=1;fillColor=light-dark(#FFFFFF,#FFFFFF);" parent="1" vertex="1">
          <mxGeometry x="3050" y="620" width="120" height="40" as="geometry" />
        </mxCell>
        <mxCell id="o7_HjGY78r_KiXa49CAX-49" value="&lt;font style=&quot;font-size: 30px;&quot;&gt;Start Time ....... End Time&lt;/font&gt;" style="rounded=1;whiteSpace=wrap;html=1;fillColor=light-dark(#FFFFFF,#FFFFFF);strokeColor=light-dark(#000000,#000000);fontColor=light-dark(#000000,#000000);" parent="1" vertex="1">
          <mxGeometry x="3630" y="600" width="780" height="80" as="geometry" />
        </mxCell>
        <mxCell id="o7_HjGY78r_KiXa49CAX-51" value="" style="rounded=1;whiteSpace=wrap;html=1;fillColor=light-dark(#FFFFFF,#FFFFFF);strokeColor=light-dark(#000000,#000000);" parent="1" vertex="1">
          <mxGeometry x="2220" y="890" width="480" height="2420" as="geometry" />
        </mxCell>
        <mxCell id="o7_HjGY78r_KiXa49CAX-52" value="&lt;font style=&quot;color: light-dark(rgb(0, 0, 0), rgb(0, 0, 0)); font-size: 42px;&quot;&gt;&lt;b style=&quot;&quot;&gt;Find Your Perfect Ride&lt;/b&gt;&lt;/font&gt;" style="rounded=1;whiteSpace=wrap;html=1;fillColor=light-dark(#FFFFFF,#FFFFFF);strokeColor=light-dark(#000000,#000000);align=center;" parent="1" vertex="1">
          <mxGeometry x="2220" y="710" width="480" height="150" as="geometry" />
        </mxCell>
        <mxCell id="o7_HjGY78r_KiXa49CAX-53" value="&lt;font style=&quot;font-size: 35px; color: light-dark(rgb(0, 0, 0), rgb(0, 0, 0));&quot;&gt;Filter1&lt;/font&gt;" style="rounded=1;whiteSpace=wrap;html=1;fillColor=light-dark(#FFFFFF,#FFFFFF);strokeColor=light-dark(#000000,#000000);" parent="1" vertex="1">
          <mxGeometry x="2740" y="710" width="430" height="145" as="geometry" />
        </mxCell>
        <mxCell id="o7_HjGY78r_KiXa49CAX-58" value="&lt;font style=&quot;color: light-dark(rgb(0, 0, 0), rgb(0, 0, 0)); font-size: 40px;&quot;&gt;x&lt;/font&gt;" style="rounded=1;whiteSpace=wrap;html=1;fillColor=light-dark(#FFFFFF,#FFFFFF);" parent="1" vertex="1">
          <mxGeometry x="3110" y="720" width="50" height="30" as="geometry" />
        </mxCell>
        <mxCell id="o7_HjGY78r_KiXa49CAX-61" value="&lt;font style=&quot;font-size: 35px; color: light-dark(rgb(0, 0, 0), rgb(0, 0, 0));&quot;&gt;Filter2&lt;/font&gt;" style="rounded=1;whiteSpace=wrap;html=1;fillColor=light-dark(#FFFFFF,#FFFFFF);strokeColor=light-dark(#000000,#000000);" parent="1" vertex="1">
          <mxGeometry x="3190" y="712.5" width="430" height="145" as="geometry" />
        </mxCell>
        <mxCell id="o7_HjGY78r_KiXa49CAX-62" value="&lt;font style=&quot;color: light-dark(rgb(0, 0, 0), rgb(0, 0, 0)); font-size: 40px;&quot;&gt;x&lt;/font&gt;" style="rounded=1;whiteSpace=wrap;html=1;fillColor=light-dark(#FFFFFF,#FFFFFF);" parent="1" vertex="1">
          <mxGeometry x="3560" y="722.5" width="50" height="30" as="geometry" />
        </mxCell>
        <mxCell id="o7_HjGY78r_KiXa49CAX-63" value="&lt;font style=&quot;font-size: 35px; color: light-dark(rgb(0, 0, 0), rgb(0, 0, 0));&quot;&gt;Filter3&lt;/font&gt;" style="rounded=1;whiteSpace=wrap;html=1;fillColor=light-dark(#FFFFFF,#FFFFFF);strokeColor=light-dark(#000000,#000000);" parent="1" vertex="1">
          <mxGeometry x="3650" y="712.5" width="430" height="145" as="geometry" />
        </mxCell>
        <mxCell id="o7_HjGY78r_KiXa49CAX-64" value="&lt;font style=&quot;color: light-dark(rgb(0, 0, 0), rgb(0, 0, 0)); font-size: 40px;&quot;&gt;x&lt;/font&gt;" style="rounded=1;whiteSpace=wrap;html=1;fillColor=light-dark(#FFFFFF,#FFFFFF);" parent="1" vertex="1">
          <mxGeometry x="4010" y="725" width="50" height="30" as="geometry" />
        </mxCell>
        <mxCell id="o7_HjGY78r_KiXa49CAX-66" value="" style="rounded=1;whiteSpace=wrap;html=1;fillColor=light-dark(#FFFFFF,#FFFFFF);strokeColor=light-dark(#000000,#000000);" parent="1" vertex="1">
          <mxGeometry x="2750" y="920" width="580" height="470" as="geometry" />
        </mxCell>
        <mxCell id="o7_HjGY78r_KiXa49CAX-69" value="&lt;font style=&quot;font-size: 30px; color: light-dark(rgb(0, 0, 0), rgb(0, 0, 0));&quot;&gt;Tata Punch 2024&lt;/font&gt;" style="rounded=1;whiteSpace=wrap;html=1;fillColor=light-dark(#FFFFFF,#FFFFFF);" parent="1" vertex="1">
          <mxGeometry x="2760" y="1170" width="290" height="60" as="geometry" />
        </mxCell>
        <mxCell id="o7_HjGY78r_KiXa49CAX-70" value="&lt;font style=&quot;font-size: 30px; color: light-dark(rgb(0, 0, 0), rgb(51, 51, 51));&quot;&gt;Manual Petrol 5seats&lt;/font&gt;" style="rounded=1;whiteSpace=wrap;html=1;fillColor=light-dark(#FFFFFF,#FFFFFF);" parent="1" vertex="1">
          <mxGeometry x="2770" y="1230" width="290" height="60" as="geometry" />
        </mxCell>
        <mxCell id="o7_HjGY78r_KiXa49CAX-71" value="&lt;font style=&quot;color: light-dark(rgb(0, 0, 0), rgb(0, 0, 0)); font-size: 35px;&quot;&gt;&lt;b style=&quot;&quot;&gt;$94/hr&lt;/b&gt;&lt;/font&gt;" style="rounded=1;whiteSpace=wrap;html=1;fillColor=light-dark(#FFFFFF,#FFFFFF);" parent="1" vertex="1">
          <mxGeometry x="3190" y="1170" width="120" height="90" as="geometry" />
        </mxCell>
        <mxCell id="o7_HjGY78r_KiXa49CAX-72" value="" style="line;strokeWidth=1;align=left;verticalAlign=middle;spacingTop=-1;spacingLeft=3;spacingRight=3;rotatable=0;labelPosition=right;points=[];portConstraint=eastwest;fillColor=light-dark(#000000,#000000);strokeColor=light-dark(#000000,#000000);" parent="1" vertex="1">
          <mxGeometry x="2770" y="1151" width="550" height="8" as="geometry" />
        </mxCell>
        <mxCell id="o7_HjGY78r_KiXa49CAX-73" value="&lt;font style=&quot;color: light-dark(rgb(0, 0, 0), rgb(0, 0, 0)); font-size: 40px;&quot;&gt;Car IMG&lt;/font&gt;" style="rounded=1;whiteSpace=wrap;html=1;fillColor=light-dark(#FFFFFF,#FFFFFF);" parent="1" vertex="1">
          <mxGeometry x="2840" y="980" width="370" height="120" as="geometry" />
        </mxCell>
        <mxCell id="o7_HjGY78r_KiXa49CAX-74" value="&lt;font style=&quot;font-size: 25px; color: light-dark(rgb(0, 0, 0), rgb(0, 0, 0));&quot;&gt;4.5 rating&lt;/font&gt;" style="rounded=1;whiteSpace=wrap;html=1;fillColor=light-dark(#FFFFFF,#FFFFFF);" parent="1" vertex="1">
          <mxGeometry x="2770" y="1090" width="120" height="60" as="geometry" />
        </mxCell>
        <mxCell id="o7_HjGY78r_KiXa49CAX-75" value="" style="rounded=1;whiteSpace=wrap;html=1;fillColor=light-dark(#FFFFFF,#FFFFFF);strokeColor=light-dark(#000000,#000000);" parent="1" vertex="1">
          <mxGeometry x="3380" y="910" width="580" height="470" as="geometry" />
        </mxCell>
        <mxCell id="o7_HjGY78r_KiXa49CAX-76" value="&lt;font style=&quot;font-size: 30px; color: light-dark(rgb(0, 0, 0), rgb(0, 0, 0));&quot;&gt;Tata Punch 2024&lt;/font&gt;" style="rounded=1;whiteSpace=wrap;html=1;fillColor=light-dark(#FFFFFF,#FFFFFF);" parent="1" vertex="1">
          <mxGeometry x="3390" y="1160" width="290" height="60" as="geometry" />
        </mxCell>
        <mxCell id="o7_HjGY78r_KiXa49CAX-77" value="&lt;font style=&quot;font-size: 30px; color: light-dark(rgb(0, 0, 0), rgb(51, 51, 51));&quot;&gt;Manual Petrol 5seats&lt;/font&gt;" style="rounded=1;whiteSpace=wrap;html=1;fillColor=light-dark(#FFFFFF,#FFFFFF);" parent="1" vertex="1">
          <mxGeometry x="3400" y="1220" width="290" height="60" as="geometry" />
        </mxCell>
        <mxCell id="o7_HjGY78r_KiXa49CAX-78" value="&lt;font style=&quot;color: light-dark(rgb(0, 0, 0), rgb(0, 0, 0)); font-size: 35px;&quot;&gt;&lt;b style=&quot;&quot;&gt;$94/hr&lt;/b&gt;&lt;/font&gt;" style="rounded=1;whiteSpace=wrap;html=1;fillColor=light-dark(#FFFFFF,#FFFFFF);" parent="1" vertex="1">
          <mxGeometry x="3820" y="1160" width="120" height="90" as="geometry" />
        </mxCell>
        <mxCell id="o7_HjGY78r_KiXa49CAX-79" value="" style="line;strokeWidth=1;align=left;verticalAlign=middle;spacingTop=-1;spacingLeft=3;spacingRight=3;rotatable=0;labelPosition=right;points=[];portConstraint=eastwest;fillColor=light-dark(#000000,#000000);strokeColor=light-dark(#000000,#000000);" parent="1" vertex="1">
          <mxGeometry x="3400" y="1141" width="550" height="8" as="geometry" />
        </mxCell>
        <mxCell id="o7_HjGY78r_KiXa49CAX-80" value="&lt;font style=&quot;color: light-dark(rgb(0, 0, 0), rgb(0, 0, 0)); font-size: 40px;&quot;&gt;Car IMG&lt;/font&gt;" style="rounded=1;whiteSpace=wrap;html=1;fillColor=light-dark(#FFFFFF,#FFFFFF);" parent="1" vertex="1">
          <mxGeometry x="3470" y="970" width="370" height="120" as="geometry" />
        </mxCell>
        <mxCell id="o7_HjGY78r_KiXa49CAX-81" value="&lt;font style=&quot;font-size: 25px; color: light-dark(rgb(0, 0, 0), rgb(0, 0, 0));&quot;&gt;4.5 rating&lt;/font&gt;" style="rounded=1;whiteSpace=wrap;html=1;fillColor=light-dark(#FFFFFF,#FFFFFF);" parent="1" vertex="1">
          <mxGeometry x="3400" y="1080" width="120" height="60" as="geometry" />
        </mxCell>
        <mxCell id="o7_HjGY78r_KiXa49CAX-89" value="" style="rounded=1;whiteSpace=wrap;html=1;fillColor=light-dark(#FFFFFF,#FFFFFF);strokeColor=light-dark(#000000,#000000);" parent="1" vertex="1">
          <mxGeometry x="4010" y="900" width="580" height="470" as="geometry" />
        </mxCell>
        <mxCell id="o7_HjGY78r_KiXa49CAX-90" value="&lt;font style=&quot;font-size: 30px; color: light-dark(rgb(0, 0, 0), rgb(0, 0, 0));&quot;&gt;Tata Punch 2024&lt;/font&gt;" style="rounded=1;whiteSpace=wrap;html=1;fillColor=light-dark(#FFFFFF,#FFFFFF);" parent="1" vertex="1">
          <mxGeometry x="4020" y="1150" width="290" height="60" as="geometry" />
        </mxCell>
        <mxCell id="o7_HjGY78r_KiXa49CAX-91" value="&lt;font style=&quot;font-size: 30px; color: light-dark(rgb(0, 0, 0), rgb(51, 51, 51));&quot;&gt;Manual Petrol 5seats&lt;/font&gt;" style="rounded=1;whiteSpace=wrap;html=1;fillColor=light-dark(#FFFFFF,#FFFFFF);" parent="1" vertex="1">
          <mxGeometry x="4030" y="1210" width="290" height="60" as="geometry" />
        </mxCell>
        <mxCell id="o7_HjGY78r_KiXa49CAX-92" value="&lt;font style=&quot;color: light-dark(rgb(0, 0, 0), rgb(0, 0, 0)); font-size: 35px;&quot;&gt;&lt;b style=&quot;&quot;&gt;$94/hr&lt;/b&gt;&lt;/font&gt;" style="rounded=1;whiteSpace=wrap;html=1;fillColor=light-dark(#FFFFFF,#FFFFFF);" parent="1" vertex="1">
          <mxGeometry x="4450" y="1150" width="120" height="90" as="geometry" />
        </mxCell>
        <mxCell id="o7_HjGY78r_KiXa49CAX-93" value="" style="line;strokeWidth=1;align=left;verticalAlign=middle;spacingTop=-1;spacingLeft=3;spacingRight=3;rotatable=0;labelPosition=right;points=[];portConstraint=eastwest;fillColor=light-dark(#000000,#000000);strokeColor=light-dark(#000000,#000000);" parent="1" vertex="1">
          <mxGeometry x="4030" y="1131" width="550" height="8" as="geometry" />
        </mxCell>
        <mxCell id="o7_HjGY78r_KiXa49CAX-94" value="&lt;font style=&quot;color: light-dark(rgb(0, 0, 0), rgb(0, 0, 0)); font-size: 40px;&quot;&gt;Car IMG&lt;/font&gt;" style="rounded=1;whiteSpace=wrap;html=1;fillColor=light-dark(#FFFFFF,#FFFFFF);" parent="1" vertex="1">
          <mxGeometry x="4100" y="960" width="370" height="120" as="geometry" />
        </mxCell>
        <mxCell id="o7_HjGY78r_KiXa49CAX-95" value="&lt;font style=&quot;font-size: 25px; color: light-dark(rgb(0, 0, 0), rgb(0, 0, 0));&quot;&gt;4.5 rating&lt;/font&gt;" style="rounded=1;whiteSpace=wrap;html=1;fillColor=light-dark(#FFFFFF,#FFFFFF);" parent="1" vertex="1">
          <mxGeometry x="4030" y="1070" width="120" height="60" as="geometry" />
        </mxCell>
        <mxCell id="o7_HjGY78r_KiXa49CAX-96" value="" style="verticalLabelPosition=bottom;verticalAlign=top;html=1;shape=mxgraph.basic.heart;fillColor=light-dark(#FFFFFF,#FFFFFF);strokeColor=light-dark(#000000,#000000);" parent="1" vertex="1">
          <mxGeometry x="4500" y="930" width="60" height="70" as="geometry" />
        </mxCell>
        <mxCell id="o7_HjGY78r_KiXa49CAX-97" value="" style="verticalLabelPosition=bottom;verticalAlign=top;html=1;shape=mxgraph.basic.heart;fillColor=light-dark(#FFFFFF,#FFFFFF);strokeColor=light-dark(#000000,#000000);" parent="1" vertex="1">
          <mxGeometry x="3870" y="930" width="60" height="70" as="geometry" />
        </mxCell>
        <mxCell id="o7_HjGY78r_KiXa49CAX-98" value="" style="verticalLabelPosition=bottom;verticalAlign=top;html=1;shape=mxgraph.basic.heart;fillColor=light-dark(#FFFFFF,#FFFFFF);strokeColor=light-dark(#000000,#000000);" parent="1" vertex="1">
          <mxGeometry x="3230" y="940" width="60" height="70" as="geometry" />
        </mxCell>
        <mxCell id="o7_HjGY78r_KiXa49CAX-101" style="edgeStyle=orthogonalEdgeStyle;rounded=0;orthogonalLoop=1;jettySize=auto;html=1;exitX=0.75;exitY=1;exitDx=0;exitDy=0;" parent="1" source="o7_HjGY78r_KiXa49CAX-99" target="o7_HjGY78r_KiXa49CAX-100" edge="1">
          <mxGeometry relative="1" as="geometry" />
        </mxCell>
        <mxCell id="o7_HjGY78r_KiXa49CAX-100" value="" style="rounded=1;whiteSpace=wrap;html=1;fillColor=light-dark(#FFFFFF,#FFFFFF);strokeColor=light-dark(#000000,#000000);" parent="1" vertex="1">
          <mxGeometry x="2235" y="955" width="450" height="275" as="geometry" />
        </mxCell>
        <mxCell id="o7_HjGY78r_KiXa49CAX-99" value="&lt;font style=&quot;font-size: 40px; color: light-dark(rgb(0, 0, 0), rgb(0, 0, 0));&quot;&gt;Total Price&lt;/font&gt;" style="rounded=1;whiteSpace=wrap;html=1;fillColor=light-dark(#FFFFFF,#FFFFFF);align=left;" parent="1" vertex="1">
          <mxGeometry x="2260" y="980" width="210" height="70" as="geometry" />
        </mxCell>
        <mxCell id="o7_HjGY78r_KiXa49CAX-103" value="" style="line;strokeWidth=1;rotatable=0;dashed=0;labelPosition=right;align=left;verticalAlign=middle;spacingTop=0;spacingLeft=6;points=[];portConstraint=eastwest;strokeColor=light-dark(#000000,#000000);fontSize=40;" parent="1" vertex="1">
          <mxGeometry x="2280" y="1085" width="350" height="70" as="geometry" />
        </mxCell>
        <mxCell id="o7_HjGY78r_KiXa49CAX-104" value="&lt;font style=&quot;font-size: 30px; color: light-dark(rgb(0, 0, 0), rgb(0, 0, 0));&quot;&gt;Max&lt;/font&gt;" style="rounded=1;whiteSpace=wrap;html=1;fillColor=light-dark(#FFFFFF,#FFFFFF);" parent="1" vertex="1">
          <mxGeometry x="2600" y="1131" width="70" height="60" as="geometry" />
        </mxCell>
        <mxCell id="o7_HjGY78r_KiXa49CAX-106" value="&lt;font style=&quot;font-size: 30px; color: light-dark(rgb(0, 0, 0), rgb(0, 0, 0));&quot;&gt;Min&lt;/font&gt;" style="rounded=1;whiteSpace=wrap;html=1;fillColor=light-dark(#FFFFFF,#FFFFFF);" parent="1" vertex="1">
          <mxGeometry x="2260" y="1131" width="70" height="60" as="geometry" />
        </mxCell>
        <mxCell id="o7_HjGY78r_KiXa49CAX-107" style="edgeStyle=orthogonalEdgeStyle;rounded=0;orthogonalLoop=1;jettySize=auto;html=1;exitX=0.5;exitY=1;exitDx=0;exitDy=0;" parent="1" source="o7_HjGY78r_KiXa49CAX-104" target="o7_HjGY78r_KiXa49CAX-104" edge="1">
          <mxGeometry relative="1" as="geometry" />
        </mxCell>
        <mxCell id="o7_HjGY78r_KiXa49CAX-108" value="&lt;font style=&quot;font-size: 40px;&quot;&gt;Sort By&lt;/font&gt;" style="rounded=1;whiteSpace=wrap;html=1;" parent="1" vertex="1">
          <mxGeometry x="4220" y="710" width="380" height="135" as="geometry" />
        </mxCell>
        <mxCell id="o7_HjGY78r_KiXa49CAX-110" value="" style="rounded=1;whiteSpace=wrap;html=1;fillColor=light-dark(#FFFFFF,#FFFFFF);strokeColor=light-dark(#000000,#000000);" parent="1" vertex="1">
          <mxGeometry x="2235" y="1260" width="450" height="275" as="geometry" />
        </mxCell>
        <mxCell id="o7_HjGY78r_KiXa49CAX-111" value="&lt;font style=&quot;font-size: 40px; color: light-dark(rgb(0, 0, 0), rgb(0, 0, 0));&quot;&gt;Car Type&lt;/font&gt;" style="rounded=1;whiteSpace=wrap;html=1;fillColor=light-dark(#FFFFFF,#FFFFFF);align=left;" parent="1" vertex="1">
          <mxGeometry x="2250" y="1290" width="210" height="70" as="geometry" />
        </mxCell>
        <mxCell id="o7_HjGY78r_KiXa49CAX-112" value="" style="whiteSpace=wrap;html=1;aspect=fixed;fillColor=light-dark(#FFFFFF,#FFFFFF);strokeColor=light-dark(#000000,#000000);" parent="1" vertex="1">
          <mxGeometry x="2250" y="1390" width="30" height="30" as="geometry" />
        </mxCell>
        <mxCell id="o7_HjGY78r_KiXa49CAX-113" style="edgeStyle=orthogonalEdgeStyle;rounded=0;orthogonalLoop=1;jettySize=auto;html=1;exitX=0.5;exitY=1;exitDx=0;exitDy=0;entryX=1;entryY=0.5;entryDx=0;entryDy=0;" parent="1" source="o7_HjGY78r_KiXa49CAX-112" target="o7_HjGY78r_KiXa49CAX-112" edge="1">
          <mxGeometry relative="1" as="geometry" />
        </mxCell>
        <mxCell id="o7_HjGY78r_KiXa49CAX-114" value="" style="whiteSpace=wrap;html=1;aspect=fixed;fillColor=light-dark(#FFFFFF,#FFFFFF);strokeColor=light-dark(#000000,#000000);direction=south;" parent="1" vertex="1">
          <mxGeometry x="2250" y="1470" width="30" height="30" as="geometry" />
        </mxCell>
        <mxCell id="o7_HjGY78r_KiXa49CAX-115" value="" style="whiteSpace=wrap;html=1;aspect=fixed;fillColor=light-dark(#FFFFFF,#FFFFFF);strokeColor=light-dark(#000000,#000000);" parent="1" vertex="1">
          <mxGeometry x="2250" y="1430" width="30" height="30" as="geometry" />
        </mxCell>
        <mxCell id="o7_HjGY78r_KiXa49CAX-119" value="&lt;font style=&quot;font-size: 20px; color: light-dark(rgb(0, 0, 0), rgb(0, 0, 0));&quot;&gt;SUV&lt;/font&gt;" style="rounded=1;whiteSpace=wrap;html=1;fillColor=light-dark(#FFFFFF,#FFFFFF);align=left;" parent="1" vertex="1">
          <mxGeometry x="2290" y="1385" width="65" height="35" as="geometry" />
        </mxCell>
        <mxCell id="o7_HjGY78r_KiXa49CAX-120" style="edgeStyle=orthogonalEdgeStyle;rounded=0;orthogonalLoop=1;jettySize=auto;html=1;exitX=0;exitY=0.5;exitDx=0;exitDy=0;" parent="1" target="o7_HjGY78r_KiXa49CAX-119" edge="1">
          <mxGeometry relative="1" as="geometry">
            <mxPoint x="2300.000000000001" y="1442.5" as="sourcePoint" />
          </mxGeometry>
        </mxCell>
        <mxCell id="o7_HjGY78r_KiXa49CAX-122" value="" style="edgeStyle=orthogonalEdgeStyle;rounded=0;orthogonalLoop=1;jettySize=auto;html=1;exitX=0;exitY=0.5;exitDx=0;exitDy=0;" parent="1" source="o7_HjGY78r_KiXa49CAX-119" edge="1">
          <mxGeometry relative="1" as="geometry">
            <mxPoint x="2290" y="1403" as="sourcePoint" />
            <mxPoint x="2332.4444444444443" y="1425" as="targetPoint" />
          </mxGeometry>
        </mxCell>
        <mxCell id="o7_HjGY78r_KiXa49CAX-125" style="edgeStyle=orthogonalEdgeStyle;rounded=0;orthogonalLoop=1;jettySize=auto;html=1;exitX=0.5;exitY=0;exitDx=0;exitDy=0;entryX=0.25;entryY=0;entryDx=0;entryDy=0;" parent="1" edge="1">
          <mxGeometry relative="1" as="geometry">
            <mxPoint x="2332.500000000001" y="1425" as="sourcePoint" />
            <mxPoint x="2316.250000000001" y="1425" as="targetPoint" />
          </mxGeometry>
        </mxCell>
        <mxCell id="o7_HjGY78r_KiXa49CAX-126" value="&lt;font style=&quot;font-size: 20px; color: light-dark(rgb(0, 0, 0), rgb(0, 0, 0));&quot;&gt;SUV&lt;/font&gt;" style="rounded=1;whiteSpace=wrap;html=1;fillColor=light-dark(#FFFFFF,#FFFFFF);align=left;arcSize=50;" parent="1" vertex="1">
          <mxGeometry x="2290" y="1385" width="65" height="35" as="geometry" />
        </mxCell>
        <mxCell id="o7_HjGY78r_KiXa49CAX-127" value="&lt;font style=&quot;font-size: 20px; color: light-dark(rgb(0, 0, 0), rgb(0, 0, 0));&quot;&gt;SUV&lt;/font&gt;" style="rounded=1;whiteSpace=wrap;html=1;fillColor=light-dark(#FFFFFF,#FFFFFF);align=left;" parent="1" vertex="1">
          <mxGeometry x="2290" y="1467.5" width="65" height="35" as="geometry" />
        </mxCell>
        <mxCell id="o7_HjGY78r_KiXa49CAX-133" value="&lt;font style=&quot;font-size: 20px; color: light-dark(rgb(0, 0, 0), rgb(0, 0, 0));&quot;&gt;SUV&lt;/font&gt;" style="rounded=1;whiteSpace=wrap;html=1;fillColor=light-dark(#FFFFFF,#FFFFFF);align=left;" parent="1" vertex="1">
          <mxGeometry x="2290" y="1427.5" width="65" height="35" as="geometry" />
        </mxCell>
        <mxCell id="o7_HjGY78r_KiXa49CAX-134" value="" style="rounded=1;whiteSpace=wrap;html=1;fillColor=light-dark(#FFFFFF,#FFFFFF);strokeColor=light-dark(#000000,#000000);" parent="1" vertex="1">
          <mxGeometry x="2230" y="1570" width="450" height="275" as="geometry" />
        </mxCell>
        <mxCell id="o7_HjGY78r_KiXa49CAX-135" value="&lt;font style=&quot;font-size: 40px; color: light-dark(rgb(0, 0, 0), rgb(0, 0, 0));&quot;&gt;Filter By Transmission&lt;/font&gt;" style="rounded=1;whiteSpace=wrap;html=1;fillColor=light-dark(#FFFFFF,#FFFFFF);align=left;" parent="1" vertex="1">
          <mxGeometry x="2245" y="1590" width="405" height="70" as="geometry" />
        </mxCell>
        <mxCell id="o7_HjGY78r_KiXa49CAX-136" value="" style="whiteSpace=wrap;html=1;aspect=fixed;fillColor=light-dark(#FFFFFF,#FFFFFF);strokeColor=light-dark(#000000,#000000);" parent="1" vertex="1">
          <mxGeometry x="2245" y="1700" width="30" height="30" as="geometry" />
        </mxCell>
        <mxCell id="o7_HjGY78r_KiXa49CAX-138" value="&lt;font style=&quot;font-size: 20px; color: light-dark(rgb(0, 0, 0), rgb(0, 0, 0));&quot;&gt;Manual&lt;/font&gt;" style="rounded=1;whiteSpace=wrap;html=1;fillColor=light-dark(#FFFFFF,#FFFFFF);align=left;" parent="1" vertex="1">
          <mxGeometry x="2290" y="1700" width="65" height="35" as="geometry" />
        </mxCell>
        <mxCell id="o7_HjGY78r_KiXa49CAX-141" value="" style="edgeStyle=orthogonalEdgeStyle;rounded=0;orthogonalLoop=1;jettySize=auto;html=1;" parent="1" source="o7_HjGY78r_KiXa49CAX-142" target="o7_HjGY78r_KiXa49CAX-138" edge="1">
          <mxGeometry relative="1" as="geometry" />
        </mxCell>
        <mxCell id="o7_HjGY78r_KiXa49CAX-140" value="" style="whiteSpace=wrap;html=1;aspect=fixed;fillColor=light-dark(#FFFFFF,#FFFFFF);strokeColor=light-dark(#000000,#000000);direction=south;" parent="1" vertex="1">
          <mxGeometry x="2245" y="1750" width="30" height="30" as="geometry" />
        </mxCell>
        <mxCell id="o7_HjGY78r_KiXa49CAX-143" value="" style="edgeStyle=orthogonalEdgeStyle;rounded=0;orthogonalLoop=1;jettySize=auto;html=1;" parent="1" source="o7_HjGY78r_KiXa49CAX-140" target="o7_HjGY78r_KiXa49CAX-142" edge="1">
          <mxGeometry relative="1" as="geometry">
            <mxPoint x="2275" y="1765" as="sourcePoint" />
            <mxPoint x="2322" y="1735" as="targetPoint" />
          </mxGeometry>
        </mxCell>
        <mxCell id="o7_HjGY78r_KiXa49CAX-142" value="&lt;font style=&quot;font-size: 20px; color: light-dark(rgb(0, 0, 0), rgb(0, 0, 0));&quot;&gt;Automatic&lt;/font&gt;" style="rounded=1;whiteSpace=wrap;html=1;fillColor=light-dark(#FFFFFF,#FFFFFF);align=left;arcSize=50;" parent="1" vertex="1">
          <mxGeometry x="2290" y="1747.5" width="65" height="35" as="geometry" />
        </mxCell>
        <mxCell id="o7_HjGY78r_KiXa49CAX-144" value="" style="rounded=1;whiteSpace=wrap;html=1;fillColor=light-dark(#FFFFFF,#FFFFFF);strokeColor=light-dark(#000000,#000000);" parent="1" vertex="1">
          <mxGeometry x="2235" y="1870" width="450" height="275" as="geometry" />
        </mxCell>
        <mxCell id="o7_HjGY78r_KiXa49CAX-145" value="&lt;font style=&quot;font-size: 40px; color: light-dark(rgb(0, 0, 0), rgb(0, 0, 0));&quot;&gt;Filter By Fuel Type&lt;/font&gt;" style="rounded=1;whiteSpace=wrap;html=1;fillColor=light-dark(#FFFFFF,#FFFFFF);align=left;" parent="1" vertex="1">
          <mxGeometry x="2250" y="1890" width="405" height="70" as="geometry" />
        </mxCell>
        <mxCell id="o7_HjGY78r_KiXa49CAX-146" value="&lt;font style=&quot;font-size: 20px; color: light-dark(rgb(0, 0, 0), rgb(0, 0, 0));&quot;&gt;Diesel&lt;/font&gt;" style="rounded=1;whiteSpace=wrap;html=1;fillColor=light-dark(#FFFFFF,#FFFFFF);align=left;" parent="1" vertex="1">
          <mxGeometry x="2295" y="2000" width="65" height="35" as="geometry" />
        </mxCell>
        <mxCell id="o7_HjGY78r_KiXa49CAX-147" value="" style="whiteSpace=wrap;html=1;aspect=fixed;fillColor=light-dark(#FFFFFF,#FFFFFF);strokeColor=light-dark(#000000,#000000);direction=south;" parent="1" vertex="1">
          <mxGeometry x="2250" y="2050" width="30" height="30" as="geometry" />
        </mxCell>
        <mxCell id="o7_HjGY78r_KiXa49CAX-148" value="&lt;font style=&quot;font-size: 20px; color: light-dark(rgb(0, 0, 0), rgb(0, 0, 0));&quot;&gt;Petrol&lt;/font&gt;" style="rounded=1;whiteSpace=wrap;html=1;fillColor=light-dark(#FFFFFF,#FFFFFF);align=left;arcSize=50;" parent="1" vertex="1">
          <mxGeometry x="2295" y="2047.5" width="65" height="35" as="geometry" />
        </mxCell>
        <mxCell id="o7_HjGY78r_KiXa49CAX-149" value="" style="whiteSpace=wrap;html=1;aspect=fixed;fillColor=light-dark(#FFFFFF,#FFFFFF);strokeColor=light-dark(#000000,#000000);direction=south;" parent="1" vertex="1">
          <mxGeometry x="2250" y="2000" width="30" height="30" as="geometry" />
        </mxCell>
        <mxCell id="o7_HjGY78r_KiXa49CAX-150" value="" style="whiteSpace=wrap;html=1;aspect=fixed;fillColor=light-dark(#FFFFFF,#FFFFFF);strokeColor=light-dark(#000000,#000000);direction=south;" parent="1" vertex="1">
          <mxGeometry x="2250" y="2090" width="30" height="30" as="geometry" />
        </mxCell>
        <mxCell id="o7_HjGY78r_KiXa49CAX-153" value="&lt;font style=&quot;font-size: 20px; color: light-dark(rgb(0, 0, 0), rgb(0, 0, 0));&quot;&gt;Petrol&lt;/font&gt;" style="rounded=1;whiteSpace=wrap;html=1;fillColor=light-dark(#FFFFFF,#FFFFFF);align=left;arcSize=50;" parent="1" vertex="1">
          <mxGeometry x="2295" y="2047.5" width="65" height="35" as="geometry" />
        </mxCell>
        <mxCell id="o7_HjGY78r_KiXa49CAX-154" value="&lt;font style=&quot;font-size: 20px; color: light-dark(rgb(0, 0, 0), rgb(0, 0, 0));&quot;&gt;Electric&lt;/font&gt;" style="rounded=1;whiteSpace=wrap;html=1;fillColor=light-dark(#FFFFFF,#FFFFFF);align=left;arcSize=50;" parent="1" vertex="1">
          <mxGeometry x="2295" y="2082.5" width="65" height="35" as="geometry" />
        </mxCell>
        <mxCell id="o7_HjGY78r_KiXa49CAX-155" value="" style="rounded=1;whiteSpace=wrap;html=1;fillColor=light-dark(#FFFFFF,#FFFFFF);strokeColor=light-dark(#000000,#000000);" parent="1" vertex="1">
          <mxGeometry x="2235" y="2170" width="450" height="275" as="geometry" />
        </mxCell>
        <mxCell id="o7_HjGY78r_KiXa49CAX-156" value="&lt;font style=&quot;font-size: 40px; color: light-dark(rgb(0, 0, 0), rgb(0, 0, 0));&quot;&gt;Seats&lt;/font&gt;" style="rounded=1;whiteSpace=wrap;html=1;fillColor=light-dark(#FFFFFF,#FFFFFF);align=left;" parent="1" vertex="1">
          <mxGeometry x="2250" y="2190" width="405" height="70" as="geometry" />
        </mxCell>
        <mxCell id="o7_HjGY78r_KiXa49CAX-157" value="&lt;font style=&quot;font-size: 20px; color: light-dark(rgb(0, 0, 0), rgb(0, 0, 0));&quot;&gt;4/5 Seaters&lt;/font&gt;" style="rounded=1;whiteSpace=wrap;html=1;fillColor=light-dark(#FFFFFF,#FFFFFF);align=left;" parent="1" vertex="1">
          <mxGeometry x="2295" y="2300" width="115" height="35" as="geometry" />
        </mxCell>
        <mxCell id="o7_HjGY78r_KiXa49CAX-158" value="" style="whiteSpace=wrap;html=1;aspect=fixed;fillColor=light-dark(#FFFFFF,#FFFFFF);strokeColor=light-dark(#000000,#000000);direction=south;" parent="1" vertex="1">
          <mxGeometry x="2250" y="2350" width="30" height="30" as="geometry" />
        </mxCell>
        <mxCell id="o7_HjGY78r_KiXa49CAX-160" value="" style="whiteSpace=wrap;html=1;aspect=fixed;fillColor=light-dark(#FFFFFF,#FFFFFF);strokeColor=light-dark(#000000,#000000);direction=south;" parent="1" vertex="1">
          <mxGeometry x="2250" y="2302.5" width="30" height="30" as="geometry" />
        </mxCell>
        <mxCell id="o7_HjGY78r_KiXa49CAX-161" value="&lt;font style=&quot;font-size: 20px; color: light-dark(rgb(0, 0, 0), rgb(0, 0, 0));&quot;&gt;4/5 Seaters&lt;/font&gt;" style="rounded=1;whiteSpace=wrap;html=1;fillColor=light-dark(#FFFFFF,#FFFFFF);align=left;" parent="1" vertex="1">
          <mxGeometry x="2295" y="2300" width="115" height="35" as="geometry" />
        </mxCell>
        <mxCell id="o7_HjGY78r_KiXa49CAX-163" value="&lt;font style=&quot;font-size: 20px; color: light-dark(rgb(0, 0, 0), rgb(0, 0, 0));&quot;&gt;4/5 Seaters&lt;/font&gt;" style="rounded=1;whiteSpace=wrap;html=1;fillColor=light-dark(#FFFFFF,#FFFFFF);align=left;" parent="1" vertex="1">
          <mxGeometry x="2295" y="2347.5" width="115" height="35" as="geometry" />
        </mxCell>
        <mxCell id="o7_HjGY78r_KiXa49CAX-164" value="" style="rounded=1;whiteSpace=wrap;html=1;fillColor=light-dark(#FFFFFF,#FFFFFF);strokeColor=light-dark(#000000,#000000);" parent="1" vertex="1">
          <mxGeometry x="2227.5" y="2460" width="450" height="350" as="geometry" />
        </mxCell>
        <mxCell id="o7_HjGY78r_KiXa49CAX-165" value="&lt;font style=&quot;font-size: 40px; color: light-dark(rgb(0, 0, 0), rgb(0, 0, 0));&quot;&gt;Filter By Fuel Type&lt;/font&gt;" style="rounded=1;whiteSpace=wrap;html=1;fillColor=light-dark(#FFFFFF,#FFFFFF);align=left;" parent="1" vertex="1">
          <mxGeometry x="2242.5" y="2480" width="405" height="70" as="geometry" />
        </mxCell>
        <mxCell id="o7_HjGY78r_KiXa49CAX-166" value="&lt;font style=&quot;font-size: 20px; color: light-dark(rgb(0, 0, 0), rgb(0, 0, 0));&quot;&gt;4.5+ Rating&lt;/font&gt;" style="rounded=1;whiteSpace=wrap;html=1;fillColor=light-dark(#FFFFFF,#FFFFFF);align=left;" parent="1" vertex="1">
          <mxGeometry x="2287.5" y="2590" width="122.5" height="35" as="geometry" />
        </mxCell>
        <mxCell id="o7_HjGY78r_KiXa49CAX-167" value="" style="whiteSpace=wrap;html=1;aspect=fixed;fillColor=light-dark(#FFFFFF,#FFFFFF);strokeColor=light-dark(#000000,#000000);direction=south;" parent="1" vertex="1">
          <mxGeometry x="2245" y="2637.5" width="30" height="30" as="geometry" />
        </mxCell>
        <mxCell id="o7_HjGY78r_KiXa49CAX-170" value="" style="edgeStyle=orthogonalEdgeStyle;rounded=0;orthogonalLoop=1;jettySize=auto;html=1;" parent="1" source="o7_HjGY78r_KiXa49CAX-169" edge="1">
          <mxGeometry relative="1" as="geometry">
            <mxPoint x="2319.999999999999" y="2672.5" as="targetPoint" />
          </mxGeometry>
        </mxCell>
        <mxCell id="o7_HjGY78r_KiXa49CAX-169" value="" style="whiteSpace=wrap;html=1;aspect=fixed;fillColor=light-dark(#FFFFFF,#FFFFFF);strokeColor=light-dark(#000000,#000000);direction=south;" parent="1" vertex="1">
          <mxGeometry x="2245" y="2595" width="30" height="30" as="geometry" />
        </mxCell>
        <mxCell id="o7_HjGY78r_KiXa49CAX-171" value="" style="whiteSpace=wrap;html=1;aspect=fixed;fillColor=light-dark(#FFFFFF,#FFFFFF);strokeColor=light-dark(#000000,#000000);direction=south;" parent="1" vertex="1">
          <mxGeometry x="2245" y="2682.5" width="30" height="30" as="geometry" />
        </mxCell>
        <mxCell id="o7_HjGY78r_KiXa49CAX-174" value="&lt;font style=&quot;font-size: 20px; color: light-dark(rgb(0, 0, 0), rgb(0, 0, 0));&quot;&gt;4+ Rating&lt;/font&gt;" style="rounded=1;whiteSpace=wrap;html=1;fillColor=light-dark(#FFFFFF,#FFFFFF);align=left;" parent="1" vertex="1">
          <mxGeometry x="2287.5" y="2635" width="122.5" height="35" as="geometry" />
        </mxCell>
        <mxCell id="o7_HjGY78r_KiXa49CAX-175" value="&lt;font style=&quot;font-size: 20px; color: light-dark(rgb(0, 0, 0), rgb(0, 0, 0));&quot;&gt;3.5+ Rating&lt;/font&gt;" style="rounded=1;whiteSpace=wrap;html=1;fillColor=light-dark(#FFFFFF,#FFFFFF);align=left;" parent="1" vertex="1">
          <mxGeometry x="2291.25" y="2677.5" width="122.5" height="35" as="geometry" />
        </mxCell>
        <mxCell id="o7_HjGY78r_KiXa49CAX-177" value="" style="whiteSpace=wrap;html=1;aspect=fixed;fillColor=light-dark(#FFFFFF,#FFFFFF);strokeColor=light-dark(#000000,#000000);direction=south;" parent="1" vertex="1">
          <mxGeometry x="2245" y="2725" width="30" height="30" as="geometry" />
        </mxCell>
        <mxCell id="o7_HjGY78r_KiXa49CAX-178" value="&lt;font style=&quot;font-size: 20px; color: light-dark(rgb(0, 0, 0), rgb(0, 0, 0));&quot;&gt;3+ Rating&lt;/font&gt;" style="rounded=1;whiteSpace=wrap;html=1;fillColor=light-dark(#FFFFFF,#FFFFFF);align=left;" parent="1" vertex="1">
          <mxGeometry x="2291.25" y="2720" width="122.5" height="35" as="geometry" />
        </mxCell>
        <mxCell id="o7_HjGY78r_KiXa49CAX-179" value="" style="rounded=1;whiteSpace=wrap;html=1;fillColor=light-dark(#FFFFFF,#FFFFFF);strokeColor=light-dark(#000000,#000000);" parent="1" vertex="1">
          <mxGeometry x="2235" y="2830" width="450" height="275" as="geometry" />
        </mxCell>
        <mxCell id="o7_HjGY78r_KiXa49CAX-180" value="&lt;font style=&quot;font-size: 40px; color: light-dark(rgb(0, 0, 0), rgb(0, 0, 0));&quot;&gt;Model Year&lt;/font&gt;" style="rounded=1;whiteSpace=wrap;html=1;fillColor=light-dark(#FFFFFF,#FFFFFF);align=left;" parent="1" vertex="1">
          <mxGeometry x="2260" y="2855" width="210" height="70" as="geometry" />
        </mxCell>
        <mxCell id="o7_HjGY78r_KiXa49CAX-181" value="" style="line;strokeWidth=1;rotatable=0;dashed=0;labelPosition=right;align=left;verticalAlign=middle;spacingTop=0;spacingLeft=6;points=[];portConstraint=eastwest;strokeColor=light-dark(#000000,#000000);fontSize=40;" parent="1" vertex="1">
          <mxGeometry x="2280" y="2960" width="350" height="70" as="geometry" />
        </mxCell>
        <mxCell id="o7_HjGY78r_KiXa49CAX-182" value="&lt;font style=&quot;font-size: 30px; color: light-dark(rgb(0, 0, 0), rgb(0, 0, 0));&quot;&gt;2025&lt;/font&gt;" style="rounded=1;whiteSpace=wrap;html=1;fillColor=light-dark(#FFFFFF,#FFFFFF);" parent="1" vertex="1">
          <mxGeometry x="2600" y="3006" width="70" height="60" as="geometry" />
        </mxCell>
        <mxCell id="o7_HjGY78r_KiXa49CAX-183" value="&lt;font style=&quot;font-size: 30px; color: light-dark(rgb(0, 0, 0), rgb(0, 0, 0));&quot;&gt;Old&lt;/font&gt;" style="rounded=1;whiteSpace=wrap;html=1;fillColor=light-dark(#FFFFFF,#FFFFFF);" parent="1" vertex="1">
          <mxGeometry x="2260" y="3006" width="70" height="60" as="geometry" />
        </mxCell>
        <mxCell id="1F7vxoABjgd5p12eDhP--2" value="" style="rounded=0;whiteSpace=wrap;html=1;fillColor=light-dark(#FFFFFF,#FFFFFF);" parent="1" vertex="1">
          <mxGeometry x="4860" y="-630" width="3460" height="2200" as="geometry" />
        </mxCell>
        <mxCell id="1F7vxoABjgd5p12eDhP--4" value="&lt;h2&gt;&lt;font style=&quot;color: light-dark(rgb(0, 0, 0), rgb(0, 0, 0)); font-size: 42px;&quot;&gt;&lt;b style=&quot;&quot;&gt;ZoomCar&lt;/b&gt;&lt;/font&gt;&lt;/h2&gt;" style="rounded=1;whiteSpace=wrap;html=1;fillColor=light-dark(#FFFFFF,#FFFFFF);" parent="1" vertex="1">
          <mxGeometry x="4960" y="-560" width="320" height="80" as="geometry" />
        </mxCell>
        <mxCell id="1F7vxoABjgd5p12eDhP--5" value="&lt;font style=&quot;font-size: 23px; color: light-dark(rgb(0, 0, 0), rgb(0, 0, 0));&quot;&gt;Host Car&lt;/font&gt;" style="rounded=1;whiteSpace=wrap;html=1;fillColor=light-dark(#FFFFFF,#FFFFFF);strokeColor=light-dark(#000000,#000000);" parent="1" vertex="1">
          <mxGeometry x="7190" y="-560" width="230" height="80" as="geometry" />
        </mxCell>
        <mxCell id="1F7vxoABjgd5p12eDhP--6" value="&lt;font style=&quot;font-size: 23px; color: light-dark(rgb(0, 0, 0), rgb(0, 0, 0));&quot;&gt;Guest&lt;/font&gt;" style="rounded=1;whiteSpace=wrap;html=1;fillColor=light-dark(#FFFFFF,#FFFFFF);strokeColor=light-dark(#000000,#000000);" parent="1" vertex="1">
          <mxGeometry x="7700" y="-560" width="230" height="80" as="geometry" />
        </mxCell>
        <mxCell id="1F7vxoABjgd5p12eDhP--7" value="" style="verticalLabelPosition=bottom;verticalAlign=top;html=1;shape=mxgraph.basic.heart;fillColor=light-dark(#FFFFFF,#FFFFFF);strokeColor=light-dark(#000000,#000000);" parent="1" vertex="1">
          <mxGeometry x="7500" y="-545" width="70" height="50" as="geometry" />
        </mxCell>
        <mxCell id="1F7vxoABjgd5p12eDhP--9" value="" style="rounded=1;whiteSpace=wrap;html=1;fillColor=light-dark(#FFFFFF,#FFFFFF);strokeColor=light-dark(#000000,#000000);" parent="1" vertex="1">
          <mxGeometry x="5000" y="-430" width="780" height="120" as="geometry" />
        </mxCell>
        <mxCell id="1F7vxoABjgd5p12eDhP--10" value="&lt;font style=&quot;color: light-dark(rgb(0, 0, 0), rgb(0, 0, 0)); font-size: 30px;&quot;&gt;Location&lt;/font&gt;" style="rounded=1;whiteSpace=wrap;html=1;fillColor=light-dark(#FFFFFF,#FFFFFF);" parent="1" vertex="1">
          <mxGeometry x="5310" y="-390" width="120" height="40" as="geometry" />
        </mxCell>
        <mxCell id="1F7vxoABjgd5p12eDhP--13" value="&lt;font style=&quot;font-size: 30px;&quot;&gt;Start Time ....... End Time&lt;/font&gt;" style="rounded=1;whiteSpace=wrap;html=1;fillColor=light-dark(#FFFFFF,#FFFFFF);strokeColor=light-dark(#000000,#000000);fontColor=light-dark(#000000,#000000);" parent="1" vertex="1">
          <mxGeometry x="5830" y="-430" width="780" height="120" as="geometry" />
        </mxCell>
        <mxCell id="1F7vxoABjgd5p12eDhP--15" value="" style="rounded=0;whiteSpace=wrap;html=1;fillColor=light-dark(#FFFFFF,#FFFFFF);strokeColor=light-dark(#FFFFFF,#FFFFFF);" parent="1" vertex="1">
          <mxGeometry x="5000" y="-125" width="2180" height="1335" as="geometry" />
        </mxCell>
        <mxCell id="1F7vxoABjgd5p12eDhP--18" value="&lt;font style=&quot;font-size: 30px; color: light-dark(rgb(0, 0, 0), rgb(0, 0, 0));&quot;&gt;CAR IMAGE&lt;/font&gt;" style="rounded=1;whiteSpace=wrap;html=1;fillColor=light-dark(#FFFFFF,#FFFFFF);strokeColor=light-dark(#000000,#000000);" parent="1" vertex="1">
          <mxGeometry x="5000" y="-120" width="1290" height="810" as="geometry" />
        </mxCell>
        <mxCell id="1F7vxoABjgd5p12eDhP--21" value="&lt;span style=&quot;font-size: 30px;&quot;&gt;CAR IMAGE&lt;/span&gt;" style="rounded=1;whiteSpace=wrap;html=1;fillColor=light-dark(#FFFFFF,#FFFFFF);strokeColor=light-dark(#000000,#000000);fontColor=light-dark(#000000,#000000);" parent="1" vertex="1">
          <mxGeometry x="6320" y="-120" width="410" height="390" as="geometry" />
        </mxCell>
        <mxCell id="1F7vxoABjgd5p12eDhP--22" value="CAR IMAGE" style="rounded=1;whiteSpace=wrap;html=1;fillColor=light-dark(#FFFFFF,#FFFFFF);strokeColor=light-dark(#000000,#000000);fontColor=light-dark(#000000,#000000);fontSize=30;" parent="1" vertex="1">
          <mxGeometry x="6750" y="-120" width="410" height="390" as="geometry" />
        </mxCell>
        <mxCell id="1F7vxoABjgd5p12eDhP--23" value="CAR IMAGE" style="rounded=1;whiteSpace=wrap;html=1;fillColor=light-dark(#FFFFFF,#FFFFFF);strokeColor=light-dark(#000000,#000000);fontSize=30;fontColor=light-dark(#000000,#000000);" parent="1" vertex="1">
          <mxGeometry x="6320" y="295" width="410" height="390" as="geometry" />
        </mxCell>
        <mxCell id="1F7vxoABjgd5p12eDhP--24" value="CAR IMAGE" style="rounded=1;whiteSpace=wrap;html=1;fillColor=light-dark(#FFFFFF,#FFFFFF);strokeColor=light-dark(#000000,#000000);fontSize=30;fontColor=light-dark(#000000,#000000);" parent="1" vertex="1">
          <mxGeometry x="6750" y="295" width="410" height="390" as="geometry" />
        </mxCell>
        <mxCell id="1F7vxoABjgd5p12eDhP--25" value="&lt;font style=&quot;color: light-dark(rgb(0, 0, 0), rgb(0, 0, 0)); font-size: 40px;&quot;&gt;&lt;b&gt;&amp;lt; BACK&lt;/b&gt;&lt;/font&gt;" style="rounded=1;whiteSpace=wrap;html=1;fontColor=default;fillColor=light-dark(#FFFFFF,#FFFFFF);" parent="1" vertex="1">
          <mxGeometry x="5000" y="-272.5" width="320" height="105" as="geometry" />
        </mxCell>
        <mxCell id="1F7vxoABjgd5p12eDhP--26" value="&lt;font style=&quot;font-size: 40px;&quot;&gt;Hosted By Sanket Padul&lt;/font&gt;" style="rounded=1;whiteSpace=wrap;html=1;fillColor=light-dark(#FFFFFF,#FFFFFF);fontSize=30;fontColor=light-dark(#000000,#000000);align=left;" parent="1" vertex="1">
          <mxGeometry x="5000" y="720" width="790" height="115" as="geometry" />
        </mxCell>
        <mxCell id="1F7vxoABjgd5p12eDhP--27" value="Maruti Suzuki&amp;nbsp;" style="rounded=1;whiteSpace=wrap;html=1;fillColor=light-dark(#FFFFFF,#FFFFFF);fontColor=light-dark(#000000,#000000);fontStyle=1;fontSize=62;align=left;" parent="1" vertex="1">
          <mxGeometry x="5000" y="810" width="1230" height="100" as="geometry" />
        </mxCell>
        <mxCell id="1F7vxoABjgd5p12eDhP--28" value="&lt;font style=&quot;font-size: 30px;&quot;&gt;Manual | CNG | 6 Seats&lt;/font&gt;" style="rounded=1;whiteSpace=wrap;html=1;fillColor=light-dark(#FFFFFF,#FFFFFF);fontColor=light-dark(#000000,#666666);align=left;" parent="1" vertex="1">
          <mxGeometry x="5000" y="920" width="1100" height="60" as="geometry" />
        </mxCell>
        <mxCell id="1F7vxoABjgd5p12eDhP--29" value="" style="line;strokeWidth=1;rotatable=0;dashed=0;labelPosition=right;align=left;verticalAlign=middle;spacingTop=0;spacingLeft=6;points=[];portConstraint=eastwest;strokeColor=light-dark(#000000,#000000);fontSize=10;" parent="1" vertex="1">
          <mxGeometry x="5020" y="1130" width="2130" height="30" as="geometry" />
        </mxCell>
        <mxCell id="1F7vxoABjgd5p12eDhP--30" value="Location | Reviews | Features | Cancellation | FAQs | Agreement" style="rounded=1;whiteSpace=wrap;html=1;fillColor=light-dark(#FFFFFF,#FFFFFF);fontColor=light-dark(#000000,#000000);fontSize=40;align=left;" parent="1" vertex="1">
          <mxGeometry x="5020" y="1062.5" width="1620" height="60" as="geometry" />
        </mxCell>
        <mxCell id="1F7vxoABjgd5p12eDhP--31" value="" style="verticalLabelPosition=bottom;verticalAlign=top;html=1;shape=mxgraph.basic.heart;fillColor=light-dark(#FFFFFF,#FFFFFF);strokeColor=light-dark(#000000,#000000);" parent="1" vertex="1">
          <mxGeometry x="6910" y="-225" width="70" height="50" as="geometry" />
        </mxCell>
        <mxCell id="1F7vxoABjgd5p12eDhP--32" value="" style="rounded=1;whiteSpace=wrap;html=1;fillColor=light-dark(#FFFFFF,#FFFFFF);strokeColor=light-dark(#000000,#000000);strokeWidth=1;" parent="1" vertex="1">
          <mxGeometry x="7320" y="-130" width="960" height="860" as="geometry" />
        </mxCell>
        <mxCell id="1F7vxoABjgd5p12eDhP--33" value="Proceed To Pay" style="rounded=1;whiteSpace=wrap;html=1;fillColor=light-dark(#FFFFFF,#006600);fontSize=40;" parent="1" vertex="1">
          <mxGeometry x="7360" y="520" width="890" height="140" as="geometry" />
        </mxCell>
        <mxCell id="1F7vxoABjgd5p12eDhP--34" value="&lt;font style=&quot;font-size: 50px;&quot;&gt;Reviews&lt;/font&gt;&lt;div&gt;&lt;font style=&quot;font-size: 50px;&quot;&gt;Rating&lt;/font&gt;&lt;/div&gt;" style="rounded=1;whiteSpace=wrap;html=1;fillColor=light-dark(#FFFFFF,#FFFFFF);fontSize=30;fontColor=light-dark(#000000,#000000);" parent="1" vertex="1">
          <mxGeometry x="6820" y="730" width="320" height="215" as="geometry" />
        </mxCell>
        <mxCell id="1F7vxoABjgd5p12eDhP--35" value="" style="rounded=0;whiteSpace=wrap;html=1;fillColor=light-dark(#FFFFFF,#FFFFFF);" parent="1" vertex="1">
          <mxGeometry x="4880" y="2047.5" width="3440" height="1852.5" as="geometry" />
        </mxCell>
        <mxCell id="1F7vxoABjgd5p12eDhP--36" value="Favourite Cars" style="rounded=1;whiteSpace=wrap;html=1;fontColor=light-dark(#000000,#000000);fillColor=light-dark(#FFFFFF,#FFFFFF);fontSize=70;" parent="1" vertex="1">
          <mxGeometry x="4900" y="2100" width="560" height="190" as="geometry" />
        </mxCell>
        <mxCell id="1F7vxoABjgd5p12eDhP--37" value="Go To Home" style="rounded=1;whiteSpace=wrap;html=1;fontColor=light-dark(#000000,#000000);fillColor=light-dark(#FFFFFF,#FFFFFF);fontSize=70;" parent="1" vertex="1">
          <mxGeometry x="7670" y="2110" width="560" height="190" as="geometry" />
        </mxCell>
        <mxCell id="1F7vxoABjgd5p12eDhP--39" value="" style="rounded=1;whiteSpace=wrap;html=1;fillColor=light-dark(#FFFFFF,#FFFFFF);strokeColor=light-dark(#000000,#000000);" parent="1" vertex="1">
          <mxGeometry x="5220" y="2540" width="1270" height="810" as="geometry" />
        </mxCell>
        <mxCell id="1F7vxoABjgd5p12eDhP--40" value="&lt;font style=&quot;&quot;&gt;Tata Punch 2024&lt;/font&gt;" style="rounded=1;whiteSpace=wrap;html=1;fillColor=light-dark(#FFFFFF,#FFFFFF);fontSize=40;fontColor=light-dark(#000000,#000000);" parent="1" vertex="1">
          <mxGeometry x="5250" y="3070" width="360" height="60" as="geometry" />
        </mxCell>
        <mxCell id="1F7vxoABjgd5p12eDhP--41" value="&lt;font style=&quot;font-size: 30px; color: light-dark(rgb(0, 0, 0), rgb(51, 51, 51));&quot;&gt;Manual Petrol 5seats&lt;/font&gt;" style="rounded=1;whiteSpace=wrap;html=1;fillColor=light-dark(#FFFFFF,#FFFFFF);" parent="1" vertex="1">
          <mxGeometry x="5280" y="3130" width="290" height="60" as="geometry" />
        </mxCell>
        <mxCell id="1F7vxoABjgd5p12eDhP--42" value="" style="line;strokeWidth=1;align=left;verticalAlign=middle;spacingTop=-1;spacingLeft=3;spacingRight=3;rotatable=0;labelPosition=right;points=[];portConstraint=eastwest;fillColor=light-dark(#000000,#000000);strokeColor=light-dark(#000000,#000000);" parent="1" vertex="1">
          <mxGeometry x="5245" y="3022" width="1220" height="8" as="geometry" />
        </mxCell>
        <mxCell id="1F7vxoABjgd5p12eDhP--43" value="&lt;font style=&quot;color: light-dark(rgb(0, 0, 0), rgb(0, 0, 0)); font-size: 40px;&quot;&gt;Car IMG&lt;/font&gt;" style="rounded=1;whiteSpace=wrap;html=1;fillColor=light-dark(#FFFFFF,#FFFFFF);" parent="1" vertex="1">
          <mxGeometry x="5660" y="2735" width="370" height="120" as="geometry" />
        </mxCell>
        <mxCell id="1F7vxoABjgd5p12eDhP--44" value="&lt;font style=&quot;font-size: 25px; color: light-dark(rgb(0, 0, 0), rgb(0, 0, 0));&quot;&gt;4.5 rating - 3000km driven&lt;/font&gt;" style="rounded=1;whiteSpace=wrap;html=1;fillColor=light-dark(#FFFFFF,#FFFFFF);arcSize=50;" parent="1" vertex="1">
          <mxGeometry x="5280" y="3190" width="340" height="60" as="geometry" />
        </mxCell>
        <mxCell id="1F7vxoABjgd5p12eDhP--47" value="" style="rounded=1;whiteSpace=wrap;html=1;fillColor=light-dark(#FFFFFF,#FFFFFF);strokeColor=light-dark(#000000,#000000);" parent="1" vertex="1">
          <mxGeometry x="6730" y="2540" width="1270" height="810" as="geometry" />
        </mxCell>
        <mxCell id="1F7vxoABjgd5p12eDhP--48" value="&lt;font style=&quot;&quot;&gt;Tata Punch 2024&lt;/font&gt;" style="rounded=1;whiteSpace=wrap;html=1;fillColor=light-dark(#FFFFFF,#FFFFFF);fontSize=40;fontColor=light-dark(#000000,#000000);" parent="1" vertex="1">
          <mxGeometry x="6750" y="3040" width="360" height="60" as="geometry" />
        </mxCell>
        <mxCell id="1F7vxoABjgd5p12eDhP--49" value="&lt;font style=&quot;font-size: 30px; color: light-dark(rgb(0, 0, 0), rgb(51, 51, 51));&quot;&gt;Manual Petrol 5seats&lt;/font&gt;" style="rounded=1;whiteSpace=wrap;html=1;fillColor=light-dark(#FFFFFF,#FFFFFF);" parent="1" vertex="1">
          <mxGeometry x="6780" y="3100" width="290" height="60" as="geometry" />
        </mxCell>
        <mxCell id="1F7vxoABjgd5p12eDhP--50" value="" style="line;strokeWidth=1;align=left;verticalAlign=middle;spacingTop=-1;spacingLeft=3;spacingRight=3;rotatable=0;labelPosition=right;points=[];portConstraint=eastwest;fillColor=light-dark(#000000,#000000);strokeColor=light-dark(#000000,#000000);" parent="1" vertex="1">
          <mxGeometry x="6745" y="2992" width="1220" height="8" as="geometry" />
        </mxCell>
        <mxCell id="1F7vxoABjgd5p12eDhP--51" value="&lt;font style=&quot;color: light-dark(rgb(0, 0, 0), rgb(0, 0, 0)); font-size: 40px;&quot;&gt;Car IMG&lt;/font&gt;" style="rounded=1;whiteSpace=wrap;html=1;fillColor=light-dark(#FFFFFF,#FFFFFF);" parent="1" vertex="1">
          <mxGeometry x="7160" y="2705" width="370" height="120" as="geometry" />
        </mxCell>
        <mxCell id="1F7vxoABjgd5p12eDhP--52" value="&lt;font style=&quot;font-size: 25px; color: light-dark(rgb(0, 0, 0), rgb(0, 0, 0));&quot;&gt;4.5 rating - 3000km driven&lt;/font&gt;" style="rounded=1;whiteSpace=wrap;html=1;fillColor=light-dark(#FFFFFF,#FFFFFF);arcSize=50;" parent="1" vertex="1">
          <mxGeometry x="6780" y="3160" width="340" height="60" as="geometry" />
        </mxCell>
        <mxCell id="1F7vxoABjgd5p12eDhP--56" value="" style="rounded=0;whiteSpace=wrap;html=1;fillColor=light-dark(#FFFFFF,#FFFFFF);fontColor=#ffffff;strokeColor=#005700;" parent="1" vertex="1">
          <mxGeometry x="8490" y="1780" width="2120" height="1280" as="geometry" />
        </mxCell>
        <mxCell id="1F7vxoABjgd5p12eDhP--57" value="&lt;h2&gt;&lt;font style=&quot;color: light-dark(rgb(0, 0, 0), rgb(0, 0, 0)); font-size: 42px;&quot;&gt;&lt;b style=&quot;&quot;&gt;ZoomCar&lt;/b&gt;&lt;/font&gt;&lt;/h2&gt;" style="rounded=1;whiteSpace=wrap;html=1;fillColor=light-dark(#FFFFFF,#FFFFFF);" parent="1" vertex="1">
          <mxGeometry x="8560" y="1860" width="320" height="80" as="geometry" />
        </mxCell>
        <mxCell id="1F7vxoABjgd5p12eDhP--58" value="&lt;font style=&quot;font-size: 23px; color: light-dark(rgb(0, 0, 0), rgb(0, 0, 0));&quot;&gt;Host Car&lt;/font&gt;" style="rounded=1;whiteSpace=wrap;html=1;fillColor=light-dark(#FFFFFF,#FFFFFF);strokeColor=light-dark(#000000,#000000);" parent="1" vertex="1">
          <mxGeometry x="9570" y="1870" width="230" height="60" as="geometry" />
        </mxCell>
        <mxCell id="1F7vxoABjgd5p12eDhP--59" value="&lt;font style=&quot;font-size: 23px; color: light-dark(rgb(0, 0, 0), rgb(0, 0, 0));&quot;&gt;My Booking&lt;/font&gt;" style="rounded=1;whiteSpace=wrap;html=1;fillColor=light-dark(#FFFFFF,#FFFFFF);strokeColor=light-dark(#000000,#000000);" parent="1" vertex="1">
          <mxGeometry x="9850" y="1870" width="230" height="60" as="geometry" />
        </mxCell>
        <mxCell id="1F7vxoABjgd5p12eDhP--60" value="&lt;font style=&quot;font-size: 25px; color: light-dark(rgb(0, 0, 0), rgb(0, 0, 0));&quot;&gt;Login/SignUp&lt;/font&gt;" style="rounded=1;whiteSpace=wrap;html=1;fillColor=light-dark(#FFFFFF,#FFFFFF);strokeColor=light-dark(#000000,#000000);" parent="1" vertex="1">
          <mxGeometry x="10280" y="1870" width="270" height="60" as="geometry" />
        </mxCell>
        <mxCell id="1F7vxoABjgd5p12eDhP--61" value="" style="verticalLabelPosition=bottom;verticalAlign=top;html=1;shape=mxgraph.basic.heart;fillColor=light-dark(#FFFFFF,#FFFFFF);strokeColor=light-dark(#000000,#000000);" parent="1" vertex="1">
          <mxGeometry x="10140" y="1870" width="70" height="50" as="geometry" />
        </mxCell>
        <mxCell id="1F7vxoABjgd5p12eDhP--64" value="" style="rounded=0;whiteSpace=wrap;html=1;fillColor=light-dark(#FFFFFF,#FFFFFF);strokeColor=light-dark(#000000,#000000);" parent="1" vertex="1">
          <mxGeometry x="8570" y="2030" width="650" height="790" as="geometry" />
        </mxCell>
        <mxCell id="1F7vxoABjgd5p12eDhP--65" value="" style="rounded=0;whiteSpace=wrap;html=1;fillColor=light-dark(#FFFFFF,#FFFFFF);strokeColor=light-dark(#000000,#000000);" parent="1" vertex="1">
          <mxGeometry x="9270" y="2030" width="1290" height="980" as="geometry" />
        </mxCell>
        <mxCell id="1F7vxoABjgd5p12eDhP--66" value="Booking" style="rounded=1;whiteSpace=wrap;html=1;fontSize=50;fontColor=light-dark(#000000,#000000);fillColor=light-dark(#FFFFFF,#FFFFFF);" parent="1" vertex="1">
          <mxGeometry x="9810" y="2070" width="290" height="60" as="geometry" />
        </mxCell>
        <mxCell id="1F7vxoABjgd5p12eDhP--67" value="" style="line;strokeWidth=1;align=left;verticalAlign=middle;spacingTop=-1;spacingLeft=3;spacingRight=3;rotatable=0;labelPosition=right;points=[];portConstraint=eastwest;fillColor=light-dark(#000000,#000000);strokeColor=light-dark(#000000,#000000);" parent="1" vertex="1">
          <mxGeometry x="9305" y="2162" width="1220" height="8" as="geometry" />
        </mxCell>
        <mxCell id="1F7vxoABjgd5p12eDhP--68" value="" style="ellipse;whiteSpace=wrap;html=1;aspect=fixed;" parent="1" vertex="1">
          <mxGeometry x="8805" y="2060" width="180" height="180" as="geometry" />
        </mxCell>
        <mxCell id="1F7vxoABjgd5p12eDhP--71" value="" style="shape=actor;whiteSpace=wrap;html=1;fillColor=light-dark(#FFFFFF,#FFFFFF);" parent="1" vertex="1">
          <mxGeometry x="8875" y="2117.5" width="40" height="60" as="geometry" />
        </mxCell>
        <mxCell id="1F7vxoABjgd5p12eDhP--72" value="Name" style="rounded=1;whiteSpace=wrap;html=1;fillColor=light-dark(#FFFFFF,#FFFFFF);fontSize=42;fontColor=light-dark(#000000,#000000);" parent="1" vertex="1">
          <mxGeometry x="8830" y="2272.5" width="120" height="60" as="geometry" />
        </mxCell>
        <mxCell id="1F7vxoABjgd5p12eDhP--73" value="" style="line;strokeWidth=1;align=left;verticalAlign=middle;spacingTop=-1;spacingLeft=3;spacingRight=3;rotatable=0;labelPosition=right;points=[];portConstraint=eastwest;fillColor=light-dark(#000000,#000000);strokeColor=light-dark(#000000,#000000);" parent="1" vertex="1">
          <mxGeometry x="8630" y="2356" width="550" height="14" as="geometry" />
        </mxCell>
        <mxCell id="1F7vxoABjgd5p12eDhP--74" value="Booking" style="rounded=1;whiteSpace=wrap;html=1;fontSize=42;fontColor=light-dark(#000000,#000000);fillColor=light-dark(#FFFFFF,#FFFFFF);align=left;" parent="1" vertex="1">
          <mxGeometry x="8640" y="2430" width="520" height="60" as="geometry" />
        </mxCell>
        <mxCell id="1F7vxoABjgd5p12eDhP--75" value="Account" style="rounded=1;whiteSpace=wrap;html=1;fontSize=42;fontColor=light-dark(#000000,#000000);fillColor=light-dark(#FFFFFF,#FFFFFF);align=left;" parent="1" vertex="1">
          <mxGeometry x="8635" y="2510" width="520" height="60" as="geometry" />
        </mxCell>
      </root>
    </mxGraphModel>
  </diagram>
</mxfile>
